<svg xmlns="http://www.w3.org/2000/svg" version="1.1" viewBox="-5.0 -10.0 110.0 135.0">
 <path d="m14.078 12.617c0.1875 0.24219 0.46875 0.37109 0.75391 0.37109 0.20312 0 0.40625-0.0625 0.57812-0.19531 0.41406-0.32031 0.49219-0.91797 0.17188-1.332l-6.707-8.7188c-0.32031-0.41406-0.91406-0.49219-1.332-0.17188-0.41406 0.32031-0.49219 0.91797-0.17188 1.332z"/>
 <path d="m23.492 2.2383c-0.14453-0.50391-0.67188-0.79688-1.1719-0.65234-0.50391 0.14453-0.79687 0.66797-0.65234 1.1758l1.8477 6.4883c0.11719 0.41797 0.5 0.69141 0.91406 0.69141 0.085937 0 0.17578-0.011718 0.26172-0.035156 0.50391-0.14453 0.79688-0.66797 0.65234-1.1758z"/>
 <path d="m9.4219 21.484c0.32422 0 0.64062-0.16406 0.81641-0.46484 0.26953-0.45312 0.12109-1.0352-0.33203-1.3008l-5.7969-3.4492c-0.44922-0.26953-1.0352-0.12109-1.3008 0.33203-0.26953 0.45313-0.12109 1.0352 0.33203 1.3008l5.8008 3.4492c0.14844 0.089844 0.31641 0.13281 0.48047 0.13281z"/>
 <path d="m29.789 92.262c1.1797 3.7031 4.6094 6.1914 8.5352 6.1914 2.2734 0 4.4375-0.85547 6.0938-2.4141 1.6562-1.5469 2.6719-3.6406 2.8516-5.8945 0.26172-3.0117 0.97656-5.832 2.1172-8.3867 0.64453-1.4297 2.0156-2.3203 3.5859-2.3203 1.5664 0 2.9414 0.88672 3.5859 2.3164 1.1406 2.5547 1.8516 5.375 2.1172 8.3867 0.19531 2.2695 1.2148 4.3672 2.8594 5.8945 1.6562 1.5586 3.8164 2.4141 6.0859 2.4141 3.918 0 7.3516-2.4883 8.543-6.1914 1.5586-4.8633 2.4766-9.332 2.7344-13.293 0.21875-3.3594 0.85156-6.7617 1.8906-10.125 0.3125-1.0352 0.6875-2.0781 1.0859-3.1172 0.69922 1.4844 1.1016 3.1328 1.1016 4.8789 0 0.52344 0.44141 0.94922 0.96875 0.94922 0.52344 0 0.94922-0.42578 0.94922-0.94922 0-6.332 5.1562-11.492 11.492-11.5 0.52344 0 0.94922-0.42578 0.94922-0.94922 0-0.52344-0.42578-0.94922-0.94922-0.94922-6.3398 0-11.5-5.1602-11.5-11.5 0-0.24219-0.10156-0.48438-0.26953-0.66016-0.26563-0.28516-0.67969-0.37109-1.0391-0.23047-0.35938 0.14453-0.59766 0.49219-0.59766 0.88281 0 6.3398-5.1602 11.5-11.5 11.5-0.52344 0-0.94922 0.43359-0.94922 0.96094 0 0.52344 0.42578 0.94922 0.94922 0.94922 3.7461 0 7.0664 1.8047 9.168 4.5859-0.64063 1.5234-1.2109 3.0703-1.6719 4.5977-1.0781 3.4961-1.7422 7.0469-1.9688 10.555-0.24609 3.8008-1.1367 8.1211-2.6445 12.832-0.9375 2.9141-3.6445 4.8711-6.7344 4.8711-1.7812 0-3.4805-0.67578-4.7891-1.9023-1.3047-1.2109-2.1094-2.8672-2.2656-4.668-0.28125-3.2227-1.0469-6.25-2.2734-9-0.95703-2.1211-2.9922-3.4375-5.3203-3.4375-2.3242 0-4.3594 1.3164-5.3164 3.4414-1.2266 2.75-1.9922 5.7773-2.2734 9.0039-0.14453 1.7852-0.94531 3.4414-2.2578 4.668-1.3047 1.2227-3.0039 1.8984-4.793 1.8984-3.0938 0-5.7969-1.957-6.7227-4.8711-1.5039-4.6641-2.3984-8.9844-2.6562-12.836-0.39844-6.0156-2.0078-11.98-4.7852-17.73-2.9766-6.125-5.3867-12.629-7.168-19.324-2.4844-9.3008 0.76172-18.16 8.4688-23.121 6.8438-4.4023 17.789-5.5156 26.855 1.9023 1.2227 1.3203 7.4844 7.7109 14.195 7.7109 0.16016 0 0.32422-0.003906 0.48438-0.011719 0.52344-0.023437 0.92969-0.46875 0.90625-0.99219-0.023438-0.52344-0.46094-0.91016-0.99219-0.90625-5.2578 0.25781-10.48-4.3555-12.508-6.3789 8.9141-6.7539 19.449-5.6055 26.102-1.3203 7.707 4.9609 10.953 13.82 8.4688 23.117-0.58594 2.1641-1.1758 4.1289-1.8008 6.0117-0.16406 0.49609 0.10547 1.0352 0.60156 1.1992 0.5 0.16406 1.0352-0.10547 1.2031-0.60156 0.63672-1.918 1.2344-3.9141 1.832-6.1172 2.707-10.125-0.84766-19.785-9.2734-25.207-8.7227-5.6172-20.105-4.957-28.555 1.5898-8.4414-6.543-19.816-7.207-28.543-1.5938-8.4297 5.4219-11.984 15.082-9.2773 25.207 1.8125 6.8125 4.2656 13.43 7.293 19.664 2.6719 5.5273 4.2188 11.254 4.6016 17.027 0.24609 4.0117 1.1719 8.4805 2.7188 13.293zm46.625-34.105c3.4141-1.3633 6.1445-4.0898 7.5078-7.5039 1.3594 3.418 4.0898 6.1484 7.5078 7.5117-3.4141 1.3672-6.1406 4.0977-7.5 7.5156-1.3633-3.4258-4.0938-6.1602-7.5156-7.5234z"/>
 <path d="m34.77 20.543c0-0.24219-0.10156-0.48438-0.26953-0.66016-0.26562-0.28125-0.67969-0.37109-1.0391-0.23047-0.35938 0.14453-0.59766 0.49219-0.59766 0.88281 0 6.3398-5.1602 11.5-11.5 11.5-0.52344 0-0.94922 0.43359-0.94922 0.96094 0 0.52344 0.42578 0.94922 0.94922 0.94922 6.3398 0 11.5 5.1602 11.5 11.5 0 0.52344 0.44141 0.94922 0.96875 0.94922 0.52344 0 0.94922-0.42578 0.94922-0.94922 0-6.332 5.1562-11.492 11.492-11.5 0.52344 0 0.94922-0.42578 0.94922-0.94922 0-0.52344-0.42578-0.94922-0.94922-0.94922-6.3438-0.003906-11.504-5.1602-11.504-11.504zm-0.94922 19.969c-1.3594-3.4258-4.0898-6.1602-7.5117-7.5234 3.4141-1.3633 6.1445-4.0898 7.5078-7.5039 1.3594 3.418 4.0898 6.1484 7.5078 7.5117-3.418 1.3672-6.1445 4.0977-7.5039 7.5156z"/>
 <path d="m15.16 66.793c0-0.24219-0.097656-0.48047-0.26172-0.65625-0.26563-0.28516-0.68359-0.37891-1.043-0.23438-0.36328 0.14453-0.60156 0.49219-0.60156 0.88281 0 4.8125-3.918 8.7305-8.7305 8.7305-0.52344 0-0.94922 0.43359-0.94922 0.95703 0 0.52344 0.42578 0.94922 0.94922 0.94922 4.8125 0 8.7305 3.9141 8.7305 8.7305 0 0.52344 0.4375 0.94922 0.96484 0.94922 0.52344 0 0.94922-0.42578 0.94922-0.94922 0-4.8086 3.9141-8.7227 8.7227-8.7305 0.52344 0 0.94922-0.42578 0.94922-0.94922 0-0.52344-0.42578-0.94922-0.94922-0.94922-4.8125 0-8.7305-3.918-8.7305-8.7305zm-0.94922 14.984c-1.0625-2.3477-2.957-4.2422-5.3047-5.3086 2.3438-1.0664 4.2344-2.9531 5.2969-5.2969 1.0625 2.3438 2.9531 4.2344 5.2969 5.3008-2.3359 1.0703-4.2266 2.9648-5.2891 5.3047z"/>
<text x="0.0" y="117.5" font-size="5.0" font-weight="bold" font-family="Arbeit Regular, Helvetica, Arial-Unicode, Arial, Sans-serif" fill="#000000">Created by Icons Field</text><text x="0.0" y="122.5" font-size="5.0" font-weight="bold" font-family="Arbeit Regular, Helvetica, Arial-Unicode, Arial, Sans-serif" fill="#000000">from Noun Project</text></svg>