<svg xmlns="http://www.w3.org/2000/svg" version="1.1" viewBox="-5.0 -10.0 110.0 135.0">
 <path d="m73.875 52.816c-0.50781 0.12891-0.81641 0.64844-0.68359 1.1562 0.12891 0.50781 0.64453 0.81641 1.1562 0.68359 5.8008-1.4844 9.9375-6.4453 10.301-12.34 0.39453-6.5469-0.91406-13.191-3.7852-19.219-3.7266-7.8203-9.668-14.012-17.191-17.898-3.8008-1.957-8.1797-1.9688-11.922-0.25391-2.9961-1.5664-6.0898-2.6602-9.2031-3.2266-3.4766-0.64062-7.0156 0.53906-9.4648 3.1484-2.5273 2.6914-3.5 6.4297-2.6055 9.9922l0.15625 0.62109c-7.4844 4.6719-12.715 12.691-13.488 21.895-0.28516 3.3711 0.007813 6.7031 0.86719 9.9062 2.1445 8.0273 1.7422 15.957-1.1562 22.938-2.6562 6.3906-1.9062 13.348 2.0586 19.09 3.918 5.6797 10.355 9.1445 16.914 9.1445 0.19141 0 0.38281-0.003906 0.57031-0.007813 9.2109-0.27734 16.902-6.5312 19.145-15.562 2.2695-9.0664 6.5938-17.684 12.504-24.918 7.2891-8.9766 8.4844-20.992 3.1133-31.359-4.7617-9.1914-13.672-14.855-23.789-15.395 0.48047-0.77344 1.0469-1.4883 1.7031-2.1328 3.668-3.6484 9.1836-4.5273 13.723-2.1875 7.1484 3.6953 12.801 9.582 16.348 17.027 2.7344 5.7422 3.9805 12.062 3.6055 18.289-0.3125 5.0664-3.8789 9.332-8.875 10.609zm-4.4062-25.34c5.0156 9.6836 3.9062 20.906-2.8984 29.285-6.0859 7.4492-10.539 16.324-12.875 25.66-2.0352 8.1953-9.0078 13.871-17.359 14.121-6.1211 0.19922-12.195-2.9961-15.863-8.3125-3.5898-5.2031-4.2695-11.5-1.8672-17.281 3.0625-7.3672 3.4883-15.723 1.2344-24.156-0.80078-2.9922-1.0742-6.1055-0.80859-9.2578 0.70312-8.3789 5.3711-15.707 12.082-20.109l3.6992 14.742c-2.8086 2.7383-4.3203 6.9688-4.2383 12.309-0.87891 1.3008-1.3984 2.6055-1.3594 3.7188 0.03125 0.88281 0.47656 2.9375 3.957 2.9375 0.63672 0 1.2383 0.14063 1.8125 0.42578 1.4727 0.6875 2.4219 2.1875 2.4219 3.8281 0 2.6406-0.75781 2.8867-2.4219 3.4336-0.82812 0.26953-1.7656 0.57813-2.7305 1.2305-1.3828 0.94141-2.457 2.3711-3.2812 4.3672-0.65234 1.5703-0.875 3.3164-0.63672 5.0547 0.625 4.5508 4.9766 8.2812 9.5859 8.2812 0.09375 0 0.18359 0 0.27734-0.003906 4.3516-0.13281 7.9844-3.0859 9.0391-7.3477 0.98438-3.9766 2.8281-7.6445 5.4766-10.91 1.9258-2.375 2.9883-5.3594 2.9883-8.4023 0-3.6797-1.543-7.2305-4.2344-9.75-2.7266-2.5508-6.2891-3.8125-10.035-3.5664-1.0273 0.070312-2.0625 0.32031-3.082 0.69141l-1.4141-5.6328c1.5273-1.1875 3.4141-1.9414 5.6445-2.1836 6.875-0.75391 15.617 3.9375 17.051 11.344 0.10156 0.51562 0.59766 0.85156 1.1133 0.75 0.51562-0.097657 0.85156-0.59766 0.75391-1.1133-1.6719-8.6406-11.422-13.715-19.125-12.871-2.2812 0.25-4.2695 0.96875-5.9375 2.0898l-3.625-14.445c3.332-1.8516 7.0859-3.0156 11.066-3.2812 0.64062-0.042969 1.2734-0.066406 1.9062-0.066406 10.055-0.007813 19.012 5.3984 23.684 14.422zm-36.789 34.672c1.375 1.3555 3.1719 2.0352 4.9688 2.0352 1.8125 0 3.6289-0.69141 5.0117-2.0703l4.6133-4.6133c1.3359-1.3359 2.0703-3.1133 2.0703-5 0-1.8945-0.73438-3.6758-2.0703-5.0117-1.3398-1.3398-3.1211-2.0781-5.0117-2.0781-0.71875 0-1.418 0.10547-2.0859 0.3125l-1.3594-5.4219c0.89453-0.33984 1.8203-0.57422 2.75-0.63672 0.26953-0.019531 0.53516-0.027343 0.80078-0.027343 2.9141 0 5.6641 1.0781 7.8086 3.0859 2.3086 2.1562 3.6328 5.2031 3.6328 8.3594 0 2.6094-0.91016 5.168-2.5625 7.207-2.8281 3.4844-4.7969 7.4062-5.8477 11.652-0.70703 2.8516-3.2227 5.7812-7.2578 5.9062-3.7109 0.078125-7.418-2.9805-7.918-6.6328-0.19141-1.4023-0.015625-2.8086 0.50781-4.0703 0.53125-1.3008 1.1758-2.2812 1.9492-2.9961zm1.7109-1.1016c0.13281-0.054687 0.26172-0.10547 0.39062-0.15234 0.070312-0.027343 0.14062-0.054687 0.21484-0.082031 0.19141-0.066406 0.38672-0.13281 0.57812-0.19141 1.8359-0.59766 3.7344-1.2188 3.7344-5.2383 0-0.27344-0.023438-0.54297-0.058594-0.80859-0.011719-0.085938-0.03125-0.16797-0.046875-0.25391-0.03125-0.17969-0.070313-0.35937-0.11719-0.53125-0.027344-0.097656-0.054688-0.19141-0.085938-0.28516-0.050781-0.16016-0.11328-0.32031-0.17578-0.47656-0.039063-0.09375-0.074219-0.18359-0.11719-0.27344-0.078125-0.16406-0.16797-0.32422-0.25781-0.48047-0.042969-0.070313-0.078125-0.14453-0.12109-0.21484-0.13281-0.20703-0.28125-0.40625-0.44141-0.59766-0.070313-0.085938-0.15234-0.16406-0.22656-0.24609-0.10156-0.10938-0.19922-0.21484-0.30859-0.31641-0.089843-0.085938-0.18359-0.16406-0.28125-0.24219-0.054687-0.046875-0.10547-0.097656-0.16406-0.14062l1.6836-1.6836c0.98047-0.98047 2.2852-1.5234 3.668-1.5234 1.3828 0 2.6875 0.53906 3.668 1.5234 0.97656 0.97656 1.5156 2.2812 1.5156 3.668 0 1.3828-0.53906 2.6797-1.5156 3.6602l-4.6133 4.6133c-1.9102 1.9102-4.957 2.0156-6.9922 0.3125 0.023438-0.015626 0.046876-0.027344 0.070313-0.039063zm4.0312-14.504c-0.41797 0.26953-0.8125 0.58594-1.1719 0.94531l-2.0859 2.0859c-0.62891-0.22656-1.2969-0.33984-1.9922-0.33984-2.0195 0-2.0469-0.82812-2.0586-1.1016-0.058593-1.7227 2.5352-5.0664 5.9492-7.0039zm-5.875-4.3828c0.26562-3.2266 1.2305-5.8594 2.8203-7.7969l1.2227 4.8789c-1.4922 0.77734-2.8789 1.793-4.043 2.918zm15.188-34.438c-1.0273 1.0078-1.8633 2.1719-2.5234 3.4492-0.48438 0.007813-0.96875 0.011719-1.4531 0.046875-4.0898 0.27734-7.9531 1.4336-11.414 3.2812l-0.023438-0.097656c-0.73437-2.9336 0.066407-6.0117 2.1484-8.2305 2.0352-2.168 4.8516-3.1094 7.7344-2.5781 2.543 0.46094 5.0703 1.3086 7.543 2.4844-0.71094 0.47656-1.3867 1.0234-2.0117 1.6445z"/>
<text x="0.0" y="117.5" font-size="5.0" font-weight="bold" font-family="Arbeit Regular, Helvetica, Arial-Unicode, Arial, Sans-serif" fill="#000000">Created by Icons Field</text><text x="0.0" y="122.5" font-size="5.0" font-weight="bold" font-family="Arbeit Regular, Helvetica, Arial-Unicode, Arial, Sans-serif" fill="#000000">from Noun Project</text></svg>