<svg xmlns="http://www.w3.org/2000/svg" version="1.1" viewBox="-5.0 -10.0 110.0 135.0">
 <g>
  <path d="m50 47.402c-21.75 0-39.031 19.805-39.758 20.648-0.32031 0.375-0.32031 0.92969 0 1.3047 0.72656 0.83984 18.008 20.645 39.758 20.645s39.031-19.805 39.758-20.648c0.32031-0.375 0.32031-0.92969 0-1.3047-0.72656-0.84375-18.008-20.645-39.758-20.645zm0 40.598c-18.652 0-34.445-15.859-37.648-19.301 3.2031-3.4414 18.996-19.297 37.648-19.297 18.656 0 34.445 15.859 37.648 19.301-3.2031 3.4375-18.977 19.297-37.648 19.297z"/>
  <path d="m50 53.723c-8.2734 0-15.004 6.7188-15.004 14.977 0 8.2617 6.7305 14.98 15.004 14.98s15.004-6.7188 15.004-14.98c0-8.2578-6.7305-14.977-15.004-14.977zm0 27.957c-7.1719 0-13.004-5.8203-13.004-12.98 0-7.1562 5.8359-12.977 13.004-12.977 7.1719 0 13.004 5.8203 13.004 12.977s-5.832 12.98-13.004 12.98z"/>
  <path d="m56.484 10h-12.969c-0.55078 0-1 0.44922-1 1v8.043h-8.043c-0.55078 0-1 0.44922-1 1v12.965c0 0.55078 0.44922 1 1 1h8.043v8.043c0 0.55078 0.44922 1 1 1h12.965c0.55078 0 1-0.44922 1-1v-8.043h8.043c0.55078 0 1-0.44922 1-1v-12.965c0-0.55078-0.44922-1-1-1h-8.043l0.003906-8.043c0-0.55078-0.44922-1-1-1zm8.0391 11.043v10.965h-8.043c-0.55078 0-1 0.44922-1 1v8.043h-10.965v-8.043c0-0.55078-0.44922-1-1-1h-8.043l0.003906-10.965h8.043c0.55078 0 1-0.44922 1-1l-0.003906-8.043h10.965v8.043c0 0.55078 0.44922 1 1 1z"/>
 </g>
<text x="0.0" y="117.5" font-size="5.0" font-weight="bold" font-family="Arbeit Regular, Helvetica, Arial-Unicode, Arial, Sans-serif" fill="#000000">Created by Made x Made</text><text x="0.0" y="122.5" font-size="5.0" font-weight="bold" font-family="Arbeit Regular, Helvetica, Arial-Unicode, Arial, Sans-serif" fill="#000000">from Noun Project</text></svg>