<svg xmlns="http://www.w3.org/2000/svg" version="1.1" viewBox="-5.0 -10.0 110.0 135.0">
 <path d="m91.805 38.656c0.52344 0 0.94922-0.42578 0.94922-0.94922 0-5.0273-4.0898-9.1172-9.1172-9.1172-0.52344 0-0.94922 0.42578-0.94922 0.94922 0 0.52344 0.42578 0.94922 0.94922 0.94922 3.9805 0 7.2188 3.2383 7.2188 7.2188-0.003907 0.52344 0.42188 0.94922 0.94922 0.94922z"/>
 <path d="m21.098 54.039v2.3203c0 1.5469 0.57422 3.0078 1.6133 4.1562v9.4258c0 15.082 12.27 27.355 27.355 27.355 15.082 0 27.355-12.27 27.355-27.355v-14.848c4.3906-1.7969 7.4961-6.1094 7.4961-11.141 0-6.6367-5.3984-12.035-12.035-12.035-6.6367 0-12.035 5.3984-12.035 12.035 0 5.0195 3.0898 9.3281 7.4688 11.129v5.6562c-0.80078-0.4375-1.5938-0.88672-2.3594-1.3516-4.8438-2.9258-12.219-8.2891-15.305-15.23 1.5039-2.3164 2.3398-4.8945 2.3398-7.6172 0-1.8789-0.95313-3.5391-2.4062-4.5234v-0.082031c2.1211-4.2344 6.4883-7.1523 11.535-7.1523 3.9023 0 7.5586 1.7383 10.027 4.7695 0.17969 0.22266 0.44922 0.35156 0.73828 0.35156 0.28516 0 0.55469-0.12891 0.73828-0.35156 2.4688-3.0312 6.1211-4.7695 10.02-4.7695 7.125 0 12.922 5.7969 12.922 12.922 0 9.5625-9.1211 17.078-16.773 21.703-0.44922 0.26953-0.59375 0.85547-0.32031 1.3047 0.26953 0.44922 0.85547 0.59375 1.3047 0.32031 8.0703-4.875 17.691-12.883 17.691-23.328 0-8.1719-6.6484-14.82-14.82-14.82-4.0977 0-7.957 1.6758-10.754 4.6328-2.7969-2.957-6.6602-4.6328-10.766-4.6328-4.6602 0-8.8203 2.168-11.535 5.5469l-0.015625-16.25c0-1.9531-0.6875-3.668-1.9883-4.9648-1.4531-1.4492-3.6406-2.3125-6.0625-2.4062-1.0352-1.3281-2.6094-2.1055-4.3086-2.1055-3.0234 0-5.4805 2.457-5.4805 5.4805 0 3.0234 2.457 5.4805 5.4805 5.4805 1.5312 0 2.9688-0.64062 4.0078-1.7695 0.92188 0.03125 1.2773 0.23438 1.3164 0.28516v20.648c-0.91016 0.97656-1.4727 2.2812-1.4727 3.7148 0 2.8906-5.7656 7.0898-14.805 7.0898s-14.805-4.1992-14.805-7.0898c0-1.4375-0.5625-2.7422-1.4727-3.7148l-0.011719-20.641c0.046876-0.0625 0.40625-0.26562 1.3281-0.29688 1.0391 1.1289 2.4727 1.7695 4.0078 1.7695 3.0234 0 5.4805-2.457 5.4805-5.4805 0-3.0234-2.457-5.4805-5.4805-5.4805-1.6992 0-3.2734 0.77734-4.3086 2.1055-2.418 0.09375-4.6094 0.95703-6.0625 2.4062-1.3008 1.2969-1.9883 3.0117-1.9883 4.9648v19.844c-1.4492 0.98047-2.4062 2.6406-2.4062 4.5234 0 8.4766 7.9961 15.59 19.551 17.496zm41.641-10.082c0-5.5898 4.5469-10.137 10.137-10.137s10.137 4.5469 10.137 10.137c0 5.5898-4.5469 10.137-10.137 10.137s-10.137-4.5469-10.137-10.137zm10.137 12.035c0.91016 0 1.7891-0.10938 2.6406-0.30078v14.25c0 14.035-11.418 25.453-25.453 25.453s-25.453-11.418-25.453-25.453v-8.0156c0.82031 0.39062 1.7227 0.60156 2.6562 0.60156 0.95312 0 1.8516-0.22266 2.6562-0.60938v8.0234c0 11.109 9.0352 20.145 20.145 20.145 11.105 0 20.145-9.0352 20.145-20.145v-14.258c0.85547 0.19531 1.7461 0.30859 2.6641 0.30859zm-7.9102 5.0234c1.0781 0.65234 2.2031 1.2812 3.3438 1.8828v7.043c0 10.059-8.1836 18.242-18.242 18.242s-18.242-8.1836-18.242-18.242v-9.4375c1-1.0977 1.6133-2.5469 1.6133-4.1445v-2.3203c6.8828-1.1367 12.484-4.1289 15.902-8.1484 3.2422 6.4922 9.8281 11.621 15.625 15.125zm-22.977-51.027c-0.074219 0-0.14844 0-0.22266 0.003907-0.28516 0.007812-0.55469 0.14062-0.73047 0.36719-0.69141 0.89062-1.7188 1.4023-2.8164 1.4023-1.9727 0-3.5781-1.6055-3.5781-3.5781s1.6055-3.5781 3.5781-3.5781c1.2227 0 2.3477 0.62109 3.0117 1.6602 0.17578 0.27344 0.45703 0.48438 0.80469 0.4375 2.0859-0.027344 4.0156 0.66797 5.2109 1.8594 0.94922 0.94531 1.4297 2.1602 1.4297 3.6172v19.031c-0.37109-0.082032-0.75781-0.125-1.1523-0.125-0.73828 0-1.4414 0.14844-2.0859 0.41406v-19.32c0-0.52344-0.19531-0.99219-0.56641-1.3516-0.5625-0.55859-1.5352-0.83984-2.8828-0.83984zm-36.137 2.1914c0-1.457 0.48047-2.6719 1.4297-3.6172 1.1875-1.1836 3.0703-1.8594 5.168-1.8594h0.050781c0.32422 0 0.625-0.16406 0.80078-0.4375 0.66406-1.0391 1.7891-1.6602 3.0117-1.6602 1.9727 0 3.5781 1.6055 3.5781 3.5781s-1.6055 3.5781-3.5781 3.5781c-1.1016 0-2.125-0.51172-2.8164-1.4023-0.17578-0.22656-0.44531-0.36328-0.73047-0.36719-1.4609-0.03125-2.5117 0.25-3.1094 0.83594-0.37109 0.36328-0.56641 0.83203-0.56641 1.3516v19.32c-0.64453-0.26562-1.3477-0.41406-2.0859-0.41406-0.39453 0-0.78125 0.042968-1.1523 0.125zm1.1523 20.805c1.9609 0 3.5547 1.5938 3.5547 3.5586 0 4.2539 6.8594 8.9883 16.707 8.9883 9.8438 0 16.707-4.7383 16.707-8.9883 0-1.9609 1.5938-3.5586 3.5586-3.5586 1.9609 0 3.5547 1.5938 3.5547 3.5586 0 7.7031-7.7031 14.176-18.734 15.742-0.46875 0.066406-0.81641 0.46875-0.81641 0.94141v3.1367c0 2.3555-1.9141 4.2695-4.2695 4.2695-1.1406 0-2.2148-0.44531-3.0195-1.2422-0.80469-0.8125-1.2461-1.8867-1.2461-3.0273v-3.1367c0-0.47266-0.34766-0.875-0.81641-0.94141-11.031-1.5664-18.734-8.0391-18.734-15.742-0.003907-1.9648 1.5938-3.5586 3.5547-3.5586z"/>
 <path d="m78.508 43.957c0-3.1055-2.5273-5.6289-5.6289-5.6289-3.1055-0.003906-5.6328 2.5234-5.6328 5.6289s2.5273 5.6289 5.6289 5.6289c3.1055 0 5.6328-2.5234 5.6328-5.6289zm-9.3633 0c0-2.0586 1.6719-3.7305 3.7305-3.7305s3.7305 1.6719 3.7305 3.7305c0 2.0586-1.6719 3.7305-3.7305 3.7305-2.0547 0-3.7305-1.6758-3.7305-3.7305z"/>
<text x="0.0" y="117.5" font-size="5.0" font-weight="bold" font-family="Arbeit Regular, Helvetica, Arial-Unicode, Arial, Sans-serif" fill="#000000">Created by Icons Field</text><text x="0.0" y="122.5" font-size="5.0" font-weight="bold" font-family="Arbeit Regular, Helvetica, Arial-Unicode, Arial, Sans-serif" fill="#000000">from Noun Project</text></svg>