<svg xmlns="http://www.w3.org/2000/svg" version="1.1" viewBox="-5.0 -10.0 110.0 135.0">
 <path d="m70.727 68.574 1.7617-1.0859c1.9727 0.17578 3.9766 0.035157 5.9453-0.42969 4.9102-1.1445 9.082-4.1328 11.742-8.4141 2.6562-4.2773 3.4883-9.332 2.3398-14.234-1.1445-4.9062-4.1289-9.0703-8.4102-11.727s-9.3359-3.4922-14.246-2.3477c-4.9102 1.1484-9.0742 4.1367-11.734 8.4141-2.6562 4.2773-3.4883 9.3359-2.3398 14.242 0.73828 3.1523 2.2656 6.0547 4.4297 8.4219l-0.80078 8.7656h-4.9297c-1.5156-3.2461-4.8047-5.4297-8.5156-5.4297-3.7852 0-7.125 2.2734-8.6016 5.625-2.293-0.0625-4.5781-0.54688-6.75-1.4844-4.5117-1.9492-7.9922-5.5273-9.7969-10.082-2.9531-7.4414-0.67187-15.664 5.0547-20.637l5.2383 6.1992c1.7656 2.0859 4.2891 3.1602 6.8281 3.1602 0.61719 0 1.2305-0.070312 1.8359-0.19922l0.63672 0.75391c0.94141 1.1133 2.2617 1.7969 3.7148 1.918 0.15625 0.011719 0.3125 0.019532 0.46484 0.019532 1.2852 0 2.5195-0.44922 3.5156-1.2891l2.4531-2.0742c1.1133-0.94141 1.793-2.2617 1.918-3.7148 0.12109-1.4531-0.32812-2.8672-1.2695-3.9805l-0.63281-0.75c1.1641-2.9609 0.71094-6.4492-1.4844-9.043l-14.707-17.402c2.0781-2.2148 2.2148-5.6953 0.20703-8.0742-2.1641-2.5586-6.0039-2.8828-8.5625-0.71875l-16.898 14.289c-1.2383 1.0469-1.9961 2.5156-2.1328 4.1328-0.13672 1.6172 0.36719 3.1914 1.4141 4.4297 1.0469 1.2383 2.5156 1.9961 4.1328 2.1328 0.17188 0.015624 0.34766 0.023437 0.51953 0.023437 1.1953 0 2.3398-0.36719 3.332-1.0273l3.1484 3.7266c-8.8516 7.6211-12.383 20.293-7.8398 31.746 2.7734 6.9844 8.1094 12.477 15.027 15.461 2.7539 1.1875 5.6211 1.9219 8.5195 2.1992l-0.98438 5.1172h-9.7617c-3.6523 0-6.625 2.9727-6.625 6.625 0 3.6523 2.9727 6.625 6.625 6.625h42.926c3.6523 0 6.625-2.9727 6.625-6.625 0-3.6523-2.9727-6.625-6.625-6.625h-9.7617l-1.0664-5.5547h31.07c0.52344 0 0.94922-0.42578 0.94922-0.94922s-0.42578-0.94922-0.94922-0.94922h-7.3594c0.59766-0.79297 0.96484-1.7656 0.96484-2.832 0-2.6094-2.1211-4.7344-4.7305-4.7344h-15.219l0.82422-9.0156c0.023438-0.27344-0.070312-0.54688-0.26172-0.74219-2.0898-2.1797-3.5586-4.8984-4.2539-7.8594-1.0312-4.4102-0.28516-8.957 2.1055-12.805s6.1367-6.5352 10.551-7.5664c4.4062-1.0273 8.9609-0.28125 12.809 2.1094 3.8477 2.3906 6.5352 6.1367 7.5625 10.547 1.0312 4.4062 0.28516 8.9531-2.1055 12.797-2.3906 3.8516-6.1406 6.5352-10.562 7.5664-1.8711 0.44141-3.7656 0.5625-5.6328 0.35938-0.21094-0.019531-0.42188 0.023437-0.60156 0.13672l-2.0352 1.2539c-0.44531 0.27344-0.58594 0.85938-0.3125 1.3086 0.27344 0.43359 0.85938 0.57031 1.3086 0.29688zm1.4336 23.254c0 2.6055-2.1172 4.7227-4.7227 4.7227h-42.93c-2.6055 0-4.7227-2.1211-4.7227-4.7227 0-2.6055 2.1172-4.7227 4.7227-4.7227h42.926c2.6055 0 4.7266 2.1172 4.7266 4.7227zm-26.188-25.176c3.5898 0 6.6875 2.5586 7.3672 6.0859l2.3984 12.465h-19.527l2.3945-12.465c0.67578-3.5273 3.7773-6.0859 7.3672-6.0859zm3.7891-26.461c0.61328 0.72656 0.91016 1.6484 0.82812 2.5977-0.078125 0.94922-0.52344 1.8086-1.25 2.4219l-2.4531 2.0742c-0.72656 0.61328-1.6484 0.90625-2.5977 0.82812-0.94531-0.078125-1.8086-0.52344-2.4219-1.25l-0.14453-0.17188c0.69531-0.32422 1.3633-0.74609 1.9766-1.2656l4.3398-3.668c0.61328-0.51953 1.1328-1.1094 1.5703-1.7422zm-37.055-14.125c-1.1094-0.09375-2.1172-0.61328-2.8398-1.4648-0.71875-0.85156-1.0664-1.9336-0.97266-3.043s0.61328-2.1211 1.4648-2.8398l16.902-14.285c0.78125-0.66016 1.7383-0.98438 2.6914-0.98438 1.1875 0 2.3672 0.50391 3.1914 1.4766 1.4844 1.7578 1.2656 4.3984-0.49609 5.8828l-0.18359 0.15625-8.2656 6.9844-8.4492 7.1406c-0.85156 0.72266-1.9258 1.0664-3.043 0.97656zm12.723-6.6641 7.5391-6.3711 14.676 17.367c2.5039 2.9609 2.1289 7.4062-0.83203 9.9062l-4.3398 3.668c-2.9609 2.5-7.4062 2.1289-9.9062-0.83203l-14.676-17.367zm2.0586 56.742c-6.4531-2.7852-11.43-7.9062-14.016-14.418-4.2383-10.672-0.94531-22.484 7.2969-29.594l3.8711 4.5781c-6.332 5.4883-8.8516 14.582-5.5898 22.797 1.9961 5.0234 5.8359 8.9766 10.812 11.125 2.2266 0.96094 4.5547 1.4766 6.9023 1.6055-0.007813 0.046875-0.023437 0.089844-0.03125 0.13672l-1.1172 5.8242c-2.7617-0.24219-5.5039-0.92188-8.1289-2.0547zm51.887-1.2305c0 1.5625-1.2695 2.832-2.832 2.832h-20.305l-1.0312-5.3711c-0.019531-0.10156-0.046875-0.19531-0.070312-0.29688h21.41c1.5586 0.003906 2.8281 1.2734 2.8281 2.8359z"/>
 <path d="m45.973 77.348c2.1328 0 3.8672-1.7344 3.8672-3.8672 0-2.1328-1.7344-3.8672-3.8672-3.8672-2.1328 0-3.8672 1.7344-3.8672 3.8672 0 2.1328 1.7344 3.8672 3.8672 3.8672zm0-5.832c1.082 0 1.9648 0.88281 1.9648 1.9648 0 1.0859-0.88281 1.9648-1.9648 1.9648-1.082 0-1.9648-0.88281-1.9648-1.9648-0.003906-1.0859 0.87891-1.9648 1.9648-1.9648z"/>
 <path d="m45.16 33.449c0.21484 0 0.43359-0.074219 0.61328-0.22266 0.40234-0.33984 0.44922-0.9375 0.11328-1.3398l-12.578-14.883c-0.33594-0.39844-0.9375-0.45312-1.3398-0.11328s-0.44922 0.9375-0.11328 1.3398l12.578 14.883c0.1875 0.22266 0.45703 0.33594 0.72656 0.33594z"/>
 <path d="m68.664 51.637c0.52344 0 0.94922-0.42578 0.94922-0.94922v-1.8477c0.63281-0.125 1.2227-0.375 1.7422-0.72656l1.3086 1.3086c0.1875 0.1875 0.42969 0.27734 0.67188 0.27734 0.24219 0 0.48437-0.09375 0.67187-0.27734 0.37109-0.37109 0.37109-0.97266 0-1.3438l-1.3086-1.3125c0.34766-0.51953 0.59375-1.1094 0.72266-1.7422h1.8516c0.52344 0 0.94922-0.42578 0.94922-0.94922 0-0.52344-0.42578-0.94922-0.94922-0.94922h-1.8516c-0.125-0.63281-0.375-1.2227-0.72266-1.7422l1.3086-1.3086c0.37109-0.37109 0.37109-0.97266 0-1.3438-0.37109-0.37109-0.97266-0.37109-1.3438 0l-1.3086 1.3086c-0.51953-0.34766-1.1094-0.59766-1.7422-0.72266v-1.8477c0-0.52344-0.42578-0.94922-0.94922-0.94922-0.52344 0-0.94922 0.42578-0.94922 0.94922v1.8477c-0.63281 0.125-1.2227 0.375-1.7422 0.72266l-1.3086-1.3086c-0.37109-0.37109-0.97266-0.37109-1.3438 0-0.37109 0.37109-0.37109 0.97266 0 1.3438l1.3086 1.3086c-0.34766 0.51953-0.59766 1.1094-0.72266 1.7422h-1.8516c-0.52344 0-0.94922 0.42578-0.94922 0.94922 0 0.52344 0.42578 0.94922 0.94922 0.94922h1.8516c0.125 0.63281 0.375 1.2227 0.72266 1.7422l-1.3125 1.3125c-0.37109 0.37109-0.37109 0.97266 0 1.3438 0.1875 0.1875 0.42969 0.27734 0.67188 0.27734 0.24219 0 0.48438-0.09375 0.67188-0.27734l1.3086-1.3086c0.51953 0.34766 1.1094 0.59766 1.7422 0.72656v1.8477c0 0.52344 0.42578 0.94922 0.95312 0.94922zm-2.9531-7.5625c0-1.6289 1.3242-2.9531 2.9531-2.9531 1.6289 0 2.9531 1.3242 2.9531 2.9531 0 1.6328-1.3242 2.9609-2.9531 2.9609-1.6289 0-2.9531-1.3281-2.9531-2.9609z"/>
 <path d="m81.438 45.289c-0.52344 0-0.94922 0.42578-0.94922 0.94922v1.8477c-0.63281 0.125-1.2227 0.375-1.7422 0.72266l-1.3086-1.3086c-0.37109-0.37109-0.97266-0.37109-1.3438 0s-0.37109 0.97266 0 1.3438l1.3086 1.3086c-0.34766 0.51953-0.59375 1.1094-0.72266 1.7422h-1.8516c-0.52344 0-0.94922 0.42578-0.94922 0.94922s0.42578 0.94922 0.94922 0.94922h1.8516c0.125 0.63281 0.375 1.2227 0.72266 1.7422l-1.3125 1.3125c-0.37109 0.37109-0.37109 0.97266 0 1.3438 0.1875 0.1875 0.42969 0.27734 0.67188 0.27734 0.24219 0 0.48438-0.09375 0.67188-0.27734l1.3086-1.3086c0.51953 0.34766 1.1094 0.59766 1.7422 0.72656v1.8477c0 0.52344 0.42578 0.94922 0.94922 0.94922 0.52344 0 0.94922-0.42578 0.94922-0.94922v-1.8477c0.63281-0.125 1.2227-0.375 1.7422-0.72656l1.3086 1.3086c0.1875 0.1875 0.42969 0.27734 0.67188 0.27734 0.24219 0 0.48438-0.09375 0.67188-0.27734 0.37109-0.37109 0.37109-0.97266 0-1.3438l-1.3125-1.3125c0.34766-0.51953 0.59375-1.1094 0.72266-1.7422h1.8516c0.52344 0 0.94922-0.42578 0.94922-0.94922s-0.42578-0.94922-0.94922-0.94922h-1.8516c-0.125-0.63281-0.375-1.2227-0.72266-1.7422l1.3086-1.3086c0.37109-0.37109 0.37109-0.97266 0-1.3438-0.37109-0.37109-0.97266-0.37109-1.3438 0l-1.3086 1.3086c-0.51953-0.34766-1.1094-0.59766-1.7422-0.72266v-1.8477c0.011719-0.52344-0.41406-0.94922-0.94141-0.94922zm2.9531 7.5547c0 1.6328-1.3242 2.9609-2.9531 2.9609s-2.9531-1.3281-2.9531-2.9609c0-1.6289 1.3242-2.9531 2.9531-2.9531 1.6289 0.003906 2.9531 1.3281 2.9531 2.9531z"/>
<text x="0.0" y="117.5" font-size="5.0" font-weight="bold" font-family="Arbeit Regular, Helvetica, Arial-Unicode, Arial, Sans-serif" fill="#000000">Created by Icons Field</text><text x="0.0" y="122.5" font-size="5.0" font-weight="bold" font-family="Arbeit Regular, Helvetica, Arial-Unicode, Arial, Sans-serif" fill="#000000">from Noun Project</text></svg>