<svg xmlns="http://www.w3.org/2000/svg" version="1.1" viewBox="-5.0 -10.0 110.0 135.0">
 <path d="m98.453 39.32v8.9961h-23.828v-16.996h15.828c4.4102 0 8 3.5898 8 8z"/>
 <path d="m98.453 50.219v39.723c0 4.4062-3.5898 8-8 8l-55.18-0.003906c-4.4062 0-8-3.5898-8-8v-13.473h37.453c5.4531 0 9.8984-4.4375 9.8984-9.8984v-16.352z"/>
 <path d="m72.727 15.949v8.9883h-71.18v-8.9883c0-4.4062 3.582-8 7.9883-8h4.6445c-0.027344 0.3125-0.046876 0.625-0.046876 0.94922 0 1.5664 1.2812 2.8516 2.8516 2.8516 1.5781 0 2.8516-1.2812 2.8516-2.8516 0-0.34375 0.027343-0.65625 0.09375-0.94922h3.0391c0.066406 0.29297 0.09375 0.60938 0.09375 0.94922 0 1.8516-0.94922 3.0312-1.6172 3.0312-1.5664 0-2.8516 1.2812-2.8516 2.8516 0 1.5781 1.2812 2.8516 2.8516 2.8516 4.0391 0 7.3164-3.9141 7.3164-8.7305 0-0.32422-0.019531-0.63672-0.046875-0.94922h16.824c-0.027343 0.3125-0.046874 0.625-0.046874 0.94922 0 1.5664 1.2812 2.8516 2.8516 2.8516 1.5781 0 2.8516-1.2812 2.8516-2.8516 0-0.34375 0.027344-0.65625 0.09375-0.94922h3.0391c0.066406 0.29297 0.09375 0.60938 0.09375 0.94922 0 1.8516-0.94922 3.0312-1.6055 3.0312-1.5781 0-2.8516 1.2812-2.8516 2.8516 0 1.5781 1.2734 2.8516 2.8516 2.8516 4.0273 0 7.3047-3.9141 7.3047-8.7305 0-0.32422-0.019532-0.63672-0.046875-0.94922h4.6445c4.4141-0.007812 8.0078 3.582 8.0078 7.9922z"/>
 <path d="m21.453 15.73c-0.52344 0-0.94922-0.42578-0.94922-0.94922s0.42578-0.94922 0.94922-0.94922c1.9375 0 3.5117-2.2148 3.5117-4.9336 0-2.7227-1.5742-4.9375-3.5117-4.9375s-3.5156 2.2148-3.5156 4.9375c0 0.52344-0.42578 0.94922-0.94922 0.94922-0.52344 0-0.94922-0.42578-0.94922-0.94922 0-3.7695 2.4297-6.8359 5.418-6.8359 2.9844 0 5.4102 3.0664 5.4102 6.8359 0 3.7656-2.4297 6.832-5.4141 6.832z"/>
 <path d="m52.816 15.73c-0.52344 0-0.94922-0.42578-0.94922-0.94922s0.42578-0.94922 0.94922-0.94922c1.9375 0 3.5117-2.2148 3.5117-4.9336 0-2.7227-1.5742-4.9375-3.5117-4.9375s-3.5156 2.2148-3.5156 4.9375c0 0.52344-0.42578 0.94922-0.94922 0.94922-0.52344 0-0.94922-0.42578-0.94922-0.94922 0-3.7695 2.4297-6.8359 5.418-6.8359 2.9844 0 5.4102 3.0664 5.4102 6.8359 0 3.7656-2.4297 6.832-5.4141 6.832z"/>
 <path d="m46.559 45.902h-4.625c-0.52344 0-0.94922-0.42578-0.94922-0.94922v-4.625c0-2.1211-1.7266-3.8477-3.8477-3.8477-2.1211 0-3.8477 1.7266-3.8477 3.8477v4.625c0 0.52344-0.42578 0.94922-0.94922 0.94922h-4.625c-2.1211 0-3.8477 1.7266-3.8477 3.8477 0 2.125 1.7266 3.8516 3.8477 3.8516h4.625c0.52344 0 0.94922 0.42578 0.94922 0.94922v4.625c0 2.1211 1.7266 3.8477 3.8477 3.8477 2.1211 0 3.8477-1.7266 3.8477-3.8477v-4.625c0-0.52344 0.42578-0.94922 0.94922-0.94922h4.625c2.1211 0 3.8477-1.7266 3.8477-3.8477v-0.003906c0-2.1211-1.7266-3.8477-3.8477-3.8477z"/>
 <path d="m1.5469 26.84v39.727c0 4.4062 3.582 8 7.9883 8h55.188c4.4062 0 8-3.5898 8-8l0.003906-39.727zm50.758 22.914c0 3.168-2.5781 5.7461-5.7461 5.7461h-3.6758v3.6758c0 3.168-2.5781 5.7461-5.7461 5.7461s-5.7461-2.5781-5.7461-5.7461l-0.003906-3.6758h-3.6758c-3.168 0-5.7461-2.5781-5.7461-5.7461 0-3.1758 2.5781-5.7539 5.7461-5.7539h3.6758v-3.6758c0-3.168 2.5781-5.7461 5.7461-5.7461 3.168 0 5.7461 2.5781 5.7461 5.7461v3.6758h3.6758c3.168 0 5.7461 2.5781 5.7461 5.7461z"/>
<text x="0.0" y="117.5" font-size="5.0" font-weight="bold" font-family="Arbeit Regular, Helvetica, Arial-Unicode, Arial, Sans-serif" fill="#000000">Created by Icons Field</text><text x="0.0" y="122.5" font-size="5.0" font-weight="bold" font-family="Arbeit Regular, Helvetica, Arial-Unicode, Arial, Sans-serif" fill="#000000">from Noun Project</text></svg>