<svg width="16" height="16" viewBox="0 0 16 16" fill="none" xmlns="http://www.w3.org/2000/svg">
<g clip-path="url(#clip0_103841_6798)">
<rect width="16" height="16" rx="8" fill="#8C8F94"/>
<path d="M7.12451 9.58301L7.11914 9.20166C7.0708 8.40674 7.38232 7.92334 8.12354 7.48828C8.78955 7.08545 9.01514 6.79541 9.01514 6.26904V6.2583C9.01514 5.69434 8.56396 5.28076 7.88721 5.28076C7.19434 5.28076 6.74854 5.70508 6.71094 6.36572L6.7002 6.37109L5.44873 6.37646V6.36572C5.48633 5.10889 6.36182 4.18506 7.95703 4.18506C9.42871 4.18506 10.4116 5.03369 10.4116 6.20996V6.2207C10.4116 7.03711 10.0034 7.61182 9.27295 8.04688C8.56934 8.45508 8.37061 8.73438 8.37061 9.27148V9.58301H7.12451ZM7.80664 12.1343C7.26953 12.1343 6.91504 11.8013 6.91504 11.291C6.91504 10.7754 7.26953 10.4424 7.80664 10.4424C8.35449 10.4424 8.69824 10.7754 8.69824 11.291C8.69824 11.8013 8.35449 12.1343 7.80664 12.1343Z" fill="#F0F0F0"/>
</g>
<defs>
<clipPath id="clip0_103841_6798">
<rect width="16" height="16" rx="8" fill="white"/>
</clipPath>
</defs>
</svg>
