<svg width="8" height="11" viewBox="0 0 8 11" fill="none" xmlns="http://www.w3.org/2000/svg">
<path d="M5.644 9.249L5.499 9.8785C5.44489 10.1118 5.31776 10.3217 5.13611 10.4777C4.95446 10.6337 4.72776 10.7277 4.489 10.746L4.4025 10.7495H3.347C3.10742 10.7495 2.8741 10.673 2.68102 10.5312C2.48793 10.3894 2.34516 10.1896 2.2735 9.961L2.2505 9.8775L2.1055 9.249H5.644ZM3.875 0.75C4.83641 0.75 5.75844 1.13192 6.43826 1.81174C7.11808 2.49156 7.5 3.41359 7.5 4.375C7.5 5.443 7.032 6.4215 6.1175 7.295C6.0998 7.31191 6.08746 7.33364 6.082 7.3575L5.818 8.499H1.932L1.669 7.3575C1.66345 7.33382 1.65111 7.31227 1.6335 7.2955C0.7185 6.4215 0.25 5.443 0.25 4.3745C0.250133 3.41318 0.63211 2.49127 1.31191 1.81156C1.99172 1.13185 2.91368 0.75 3.875 0.75Z" fill="#3858E9"/>
</svg>
